#format: frame checksums
#version: 2
#hash: MD5
#software: Lavf57.83.100
#tb 0: 1/24
#media_type 0: video
#codec_id 0: rawvideo
#dimensions 0: 640x480
#sar 0: 1/1
#stream#, dts,        pts, duration,     size, hash
0,          0,          0,        1,  1843200, 3e0e70aa1780a87509808ba5a3bddf64
0,          1,          1,        1,  1843200, ef64fda2f12efbb83ac6a94688f64b70
0,          2,          2,        1,  1843200, 49a6756521645116c55759f0e4ef7d8c
0,          3,          3,        1,  1843200, 5d0b26f06e79369737c89f2242d03a3b
0,          4,          4,        1,  1843200, f5c8191e0ec5dafec012ced5fd676f9d
0,          5,          5,        1,  1843200, ff4b0281016df4dba120395db0d61db5
0,          6,          6,        1,  1843200, d022cc2d51783763760eac17fa8d94dd
0,          7,          7,        1,  1843200, 1bdfedacc65a779889450221b1dfdfef
0,          8,          8,        1,  1843200, b9a17c3b3ac85b77895d74afe0c6ffd4
0,          9,          9,        1,  1843200, 8fc6d4a1e9cae45c1de8b7a6eb4912f6
0,         10,         10,        1,  1843200, 3dc704a3bf91c2408a1a734ca10abc9d
0,         11,         11,        1,  1843200, 951becbc6d458e2705949321a5fa195a
0,         12,         12,        1,  1843200, 364a450c587002d528eb551dd9ddf7a9
0,         13,         13,        1,  1843200, b477bf4e55f9728ff2de09154c71f39e
0,         14,         14,        1,  1843200, fea0a29646c205db93b9276ec06f4c67
0,         15,         15,        1,  1843200, 25b1b98c4bee7a99eedd7d91d61c383d
0,         16,         16,        1,  1843200, df99f675480a508d3ec9791929af7d14
0,         17,         17,        1,  1843200, a42a8b1c71c48ef5a8e57ead74ad0faa
0,         18,         18,        1,  1843200, c3dc537c3d99d10901773574de706eb2
0,         19,         19,        1,  1843200, 31f370c8eac0081a50e7cbc90a047454
0,         20,         20,        1,  1843200, 50cce3b41b6f5052867616a354ce7411
0,         21,         21,        1,  1843200, 752d98cb2af5fb40179956e149dcbae4
0,         22,         22,        1,  1843200, 2dedd0ef39908d41a84b3b42035a4c67
0,         23,         23,        1,  1843200, 34882e142c7db38ef0c975dae48bb6e5
0,         24,         24,        1,  1843200, 324208c10b1dbb74956f6b87ff83c346
0,         25,         25,        1,  1843200, 59ed098a427809c76307114015bba5f1
0,         26,         26,        1,  1843200, ae6bb7ce77618fdaa7dd1b221a1adbf7
0,         27,         27,        1,  1843200, a7075476c256df91e1419bb9d1b73422
0,         28,         28,        1,  1843200, 1c817baa6ffb769671f488d2f76a71d4
0,         29,         29,        1,  1843200, 3b0b1d80d3ef6874ea0ac6974c50dfc0
0,         30,         30,        1,  1843200, 5461d64b37d0f77f4bc613b72b9059bf
0,         31,         31,        1,  1843200, e64b012e4bbe4fbbc86a07e7e033d1c8
0,         32,         32,        1,  1843200, fdc15984a1a1d721c76e2210d56b95c1
0,         33,         33,        1,  1843200, 97e2b60824f4f2181c83031138881c10
0,         34,         34,        1,  1843200, e28da1b901a96b521a52703dfce397aa
0,         35,         35,        1,  1843200, 1e0abb10d8b5eec91de7c536a342e87c
0,         36,         36,        1,  1843200, 92a0db622fed0d0a14d8c949a1f77d9b
0,         37,         37,        1,  1843200, 6f57297e5369fc5a92c2fc20908e32b8
0,         38,         38,        1,  1843200, 460f7effb3cd0ac08cd1550fae9cde60
0,         39,         39,        1,  1843200, a290ed9e7f92bd9d976175d9f1a26514
0,         40,         40,        1,  1843200, 224c5a11b11ecb143d084cb7c80c7748
0,         41,         41,        1,  1843200, e408a9b21b5fcab01d2036f8450e2080
0,         42,         42,        1,  1843200, 851ace023ed6723afe487442c4a5b5d8
0,         43,         43,        1,  1843200, 92d51fc5403ae8981ef08e2c4321b2ba
0,         44,         44,        1,  1843200, c0435b059e75b3f8b25d25fa342fbdb5
0,         45,         45,        1,  1843200, 2fa9141fa4269508826409d1287a0c4c
0,         46,         46,        1,  1843200, 0c363fb9e3a484b452b0fb31ee92f46b
0,         47,         47,        1,  1843200, 691dacde71f7278c8cb81118e14f59cd
